<svg width="32" height="32" viewBox="0 0 32 32" fill="none" xmlns="http://www.w3.org/2000/svg">
<path d="M29.3327 16H21.3327L18.666 20H13.3327L10.666 16H2.66602" stroke="#0A0A0A" stroke-width="2.66667" stroke-linecap="round" stroke-linejoin="round"/>
<path d="M7.26602 6.81398L2.66602 16.0007V24.0007C2.66602 24.7079 2.94697 25.3862 3.44706 25.8863C3.94716 26.3864 4.62544 26.6673 5.33268 26.6673H26.666C27.3733 26.6673 28.0515 26.3864 28.5516 25.8863C29.0517 25.3862 29.3327 24.7079 29.3327 24.0007V16.0007L24.7327 6.81398C24.5119 6.3697 24.1716 5.99581 23.75 5.73436C23.3283 5.4729 22.8421 5.33425 22.346 5.33398H9.65268C9.15657 5.33425 8.67037 5.4729 8.24874 5.73436C7.82712 5.99581 7.48678 6.3697 7.26602 6.81398Z" stroke="#0A0A0A" stroke-width="2.66667" stroke-linecap="round" stroke-linejoin="round"/>
</svg>
