<svg width="16" height="16" viewBox="0 0 16 16" fill="none" xmlns="http://www.w3.org/2000/svg">
<path d="M14.134 5.60065C14.4673 5.85398 14.6673 6.24732 14.6673 6.66732V13.334C14.6673 13.6876 14.5268 14.0267 14.2768 14.2768C14.0267 14.5268 13.6876 14.6673 13.334 14.6673H2.66732C2.3137 14.6673 1.97456 14.5268 1.72451 14.2768C1.47446 14.0267 1.33398 13.6876 1.33398 13.334V6.66732C1.33398 6.46032 1.38218 6.25617 1.47475 6.07103C1.56732 5.88589 1.70172 5.72485 1.86732 5.60065L7.20065 1.60065C7.43145 1.42755 7.71216 1.33398 8.00065 1.33398C8.28914 1.33398 8.56986 1.42755 8.80065 1.60065L14.134 5.60065Z" stroke="#99A1AF" stroke-width="1.33333" stroke-linecap="round" stroke-linejoin="round"/>
<path d="M14.6673 6.66602L8.68732 10.466C8.4815 10.595 8.24353 10.6634 8.00065 10.6634C7.75777 10.6634 7.5198 10.595 7.31398 10.466L1.33398 6.66602" stroke="#99A1AF" stroke-width="1.33333" stroke-linecap="round" stroke-linejoin="round"/>
</svg>
